PathFileType	4	(X/Y/Z)	..\data\2014048\dynamic\2014048_C5_02.trc
DataRate	CameraRate	NumFrames	NumMarkers	Units	OrigDataRate	OrigDataStartFrame	OrigNumFrames
100.000000	100.000000	4	52	mm	100.000000	18	144
Frame#	Time	L_IAS			L_IPS			R_IPS			R_IAS			L_FTC			L_FLE			L_FME			L_FAX			L_TTC			L_FAL			L_TAM			L_FCC			L_FM1			L_FM2			L_FM5			R_FTC			R_FLE			R_FME			R_FAX			R_TTC			R_FAL			R_TAM			R_FCC			R_FM1			R_FM2			R_FM5			CV7			TV10			SXS			SJN			L_SIA			L_SRS			L_SAA			L_SAE			L_HLE			L_HME			L_UOA			L_RSP			L_UHE			L_HM2			L_HM5			R_SIA			R_SRS			R_SAA			R_SAE			R_HLE			R_HME			R_UOA			R_RSP			R_UHE			R_HM2			R_HM5			
		X1	Y1	Z1	X2	Y2	Z2	X3	Y3	Z3	X4	Y4	Z4	X5	Y5	Z5	X6	Y6	Z6	X7	Y7	Z7	X8	Y8	Z8	X9	Y9	Z9	X10	Y10	Z10	X11	Y11	Z11	X12	Y12	Z12	X13	Y13	Z13	X14	Y14	Z14	X15	Y15	Z15	X16	Y16	Z16	X17	Y17	Z17	X18	Y18	Z18	X19	Y19	Z19	X20	Y20	Z20	X21	Y21	Z21	X22	Y22	Z22	X23	Y23	Z23	X24	Y24	Z24	X25	Y25	Z25	X26	Y26	Z26	X27	Y27	Z27	X28	Y28	Z28	X29	Y29	Z29	X30	Y30	Z30	X31	Y31	Z31	X32	Y32	Z32	X33	Y33	Z33	X34	Y34	Z34	X35	Y35	Z35	X36	Y36	Z36	X37	Y37	Z37	X38	Y38	Z38	X39	Y39	Z39	X40	Y40	Z40	X41	Y41	Z41	X42	Y42	Z42	X43	Y43	Z43	X44	Y44	Z44	X45	Y45	Z45	X46	Y46	Z46	X47	Y47	Z47	X48	Y48	Z48	X49	Y49	Z49	X50	Y50	Z50	X51	Y51	Z51	X52	Y52	Z52	

19	0.18	-921.1580810546877	867.0661621093752	97.83227539062491	-1114.207641601563	922.2364501953127	166.2146453857421	-1109.49462890625	927.9113769531252	272.8838195800781	-906.6973266601565	882.1070556640627	331.6791687011718	-996.874938964844	846.649353027344	34.64808273315418	-993.5711059570315	421.078094482422	59.46998977661122	-956.2217407226565	405.9220275878907	186.3587646484374	-1035.600463867188	382.2820739746094	59.49612045288075	-1002.240905761719	332.7142639160157	108.2669448852538	-1300.932495117188	214.9095153808594	124.8937911987303	-1254.999267578125	191.7428741455078	200.9123992919921	-1344.137573242188	225.1410522460938	192.1571197509764	-1276.2119140625	55.86449050903322	177.8677215576171	-1277.309326171875	60.7377052307129	130.1916046142577	-1323.670043945313	101.8547134399414	94.77236175537095	-980.0245361328127	859.6099243164065	413.2200012207031	-862.4719848632815	442.9813842773439	343.4695739746093	-862.1760864257815	452.595428466797	213.3215026855468	-864.5864868164065	388.4541320800782	345.7329101562499	-816.3386230468752	391.9948730468751	283.9887390136718	-871.7172851562502	61.5564422607422	309.8564453124999	-860.307800292969	81.62373352050783	223.6055603027343	-921.8308715820315	23.99454689025879	262.6279602050781	-741.2934570312501	20.553129196167	230.9838714599609	-737.6561889648439	31.59946823120118	284.6121215820312	-783.6687011718752	18.7846794128418	328.4852905273437	-1042.757080078125	1383.712890625	226.1601562499999	-1103.110473632813	1106.057739257813	217.2404785156249	-886.3261718750002	1071.16943359375	228.0162963867187	-928.3510742187502	1300.6005859375	225.4949951171874	-1121.364135742188	1170.022094726563	139.2286682128905	-1085.008666992188	1309.746215820313	139.2025451660155	-1037.471557617188	1317.356567382813	65.15077209472645	-987.681823730469	1320.835205078125	61.54669952392567	-1004.052673339844	1017.484802246094	-28.39424896240248	-1021.179138183594	993.6536254882815	52.09387207031239	-1025.155029296875	975.2302246093752	6.5682415962218	-813.8695068359377	853.6705322265627	-7.097624301910502	-870.4765625000002	826.287292480469	-57.0448799133302	-751.9614868164064	789.7241821289065	-17.66165924072275	-831.0025024414065	757.6088256835939	-64.43706512451183	-1119.63427734375	1161.859375	307.5835876464843	-1087.507568359375	1304.1162109375	308.2133483886718	-1040.956298828125	1309.414916992188	385.0848083496094	-994.7476196289065	1304.917724609375	405.0628051757812	-1102.955932617188	1006.747924804688	457.1208190917969	-1102.6240234375	996.5437011718752	375.8425598144531	-1120.560180664063	988.6123657226565	422.5508117675781	-1009.4287109375	771.5395507812502	467.4570922851562	-1086.969604492188	779.6032714843752	493.4839172363281	-1020.840026855469	675.0371093750001	468.9243774414062	-1104.921997070313	713.8364868164064	497.7719116210938	
20	0.19	-906.0262451171877	869.6597900390627	99.23367309570304	-1099.707397460938	924.530212402344	166.897247314453	-1095.28759765625	930.3816528320315	273.4157409667968	-892.9287109375002	884.0046997070315	333.5451660156249	-981.6008911132815	848.953063964844	35.78342437744129	-964.6619873046877	423.7798461914064	59.88845062255849	-927.0557250976565	409.2560119628907	187.0305938720702	-1005.655090332031	384.7673339843751	60.0153579711913	-970.100036621094	336.3511047363282	108.8281784057616	-1270.697265625	218.2267456054688	126.1259765624999	-1224.370361328125	194.6605987548829	201.9717407226562	-1314.309936523438	226.9488677978516	193.5773162841796	-1243.339965820313	58.74973297119142	175.6980895996093	-1244.72607421875	64.40636444091798	128.5816040039061	-1291.531005859375	106.6024551391602	93.8041610717772	-967.2216796875002	860.8719482421877	414.3502807617188	-855.6604003906252	442.7398071289064	344.0285339355468	-855.8023071289065	452.302215576172	213.7621917724609	-858.9829101562502	388.157928466797	346.1761474609374	-810.389099121094	390.9129028320314	284.5353088378906	-871.451843261719	61.71395492553712	309.7919921874999	-859.9065551757815	81.60119628906251	223.6102752685546	-921.6079101562502	24.13603591918946	262.5957946777343	-741.3164062500001	20.99320411682129	230.9647064208984	-737.5132446289064	32.22274398803712	284.6386108398437	-783.5999145507815	19.39562034606934	328.6881713867187	-1027.998046875	1386.101806640625	226.4857635498046	-1088.395385742188	1108.349487304688	217.9640808105468	-871.6894531250002	1073.306518554688	228.3212738037109	-913.7222290039065	1302.9130859375	225.6574096679687	-1106.952270507813	1172.09521484375	140.4280548095702	-1070.534545898438	1311.84912109375	139.814483642578	-1023.422119140625	1319.25	65.67395782470692	-973.5991210937502	1322.668212890625	61.69419479370107	-993.607604980469	1018.849792480469	-26.77520942688001	-1010.578857421875	995.834411621094	53.73284149169911	-1015.257141113281	977.5775146484377	8.502494812011596	-807.9981079101565	849.3079833984377	-5.818862915039162	-865.8336181640627	823.6663818359377	-55.71564102172864	-748.6692504882814	782.692810058594	-16.06645011901865	-828.884948730469	753.8281860351564	-63.06732559204113	-1104.6435546875	1164.305053710938	309.1266784667968	-1072.648315429688	1306.524169921875	309.1275939941406	-1025.456176757813	1311.860107421875	385.7808227539062	-979.1671142578127	1307.418579101563	405.3365783691406	-1081.53271484375	1007.373962402344	459.390869140625	-1082.62255859375	996.9552001953127	378.1828002929687	-1099.63916015625	988.8516235351565	425.1730651855469	-983.5004882812503	774.0555419921877	468.1307678222656	-1060.718139648438	780.7316894531252	495.9626770019531	-992.4002075195316	677.7048950195314	471.3446960449219	-1076.60498046875	714.4168701171876	501.7923278808594	
21	0.2	-891.0706787109377	872.4773559570315	100.3623504638671	-1085.396850585938	926.9692382812502	167.8648223876952	-1081.086669921875	932.8304443359377	274.1854858398437	-879.207702636719	885.6978759765627	335.2276611328124	-966.835632324219	851.4991455078127	36.9400062561034	-936.0313110351565	427.1463623046876	60.60432052612295	-898.3872680664065	413.5025024414064	188.0138702392577	-975.8494873046877	387.631561279297	60.83273315429677	-937.636413574219	340.7311401367188	109.6850128173827	-1239.319580078125	219.6860351562501	127.3479919433592	-1192.512817382813	196.2119598388672	203.0616760253905	-1283.54443359375	226.3794860839844	194.9105987548827	-1207.356689453125	60.60476303100587	173.4845275878905	-1209.071044921875	67.2554397583008	126.8724822998046	-1256.7470703125	109.5420684814453	92.79263305664048	-954.321472167969	861.8892211914065	415.4142456054688	-849.441833496094	442.3954467773439	344.4761962890624	-849.9778442382815	451.8216247558595	214.0813751220703	-853.953796386719	387.7443237304689	346.5053405761718	-805.0498046875002	389.7675170898439	284.9596557617187	-871.253356933594	61.78417205810548	309.7481994628906	-859.5529785156252	81.51177215576173	223.6469573974609	-921.4393310546877	24.25673484802247	262.5718078613281	-741.3429565429689	21.46448516845703	230.9685821533203	-737.4268798828126	32.81438446044923	284.6330261230468	-783.5440063476565	19.8894271850586	328.8381347656249	-1013.417358398438	1388.48828125	226.6954193115234	-1073.801879882813	1110.612426757813	218.6402130126952	-857.2176513671877	1075.504638671875	228.5131072998046	-899.269958496094	1305.207763671875	225.7254333496093	-1092.69189453125	1174.109497070313	141.6242523193358	-1056.23828125	1313.882934570313	140.3557281494139	-1009.601684570313	1321.068969726563	66.11331176757801	-959.7686157226565	1324.467407226563	61.68640518188466	-983.4650878906252	1020.145690917969	-25.13612556457532	-1000.290344238281	998.0564575195315	55.43386459350575	-1005.576599121094	979.9649658203127	10.45802593231189	-802.808776855469	844.8623657226565	-4.570429801941017	-861.7691040039065	821.0657348632815	-54.41317367553723	-746.2554931640626	775.603454589844	-14.43003368377695	-827.5406494140627	750.0725097656251	-61.66366195678722	-1089.876831054688	1166.787963867188	310.6349792480468	-1058.004028320313	1308.922485351563	309.9100036621093	-1010.200805664063	1314.335205078125	386.3421936035156	-963.839782714844	1309.955810546875	405.4932861328125	-1059.9599609375	1008.05615234375	461.6047973632812	-1062.484130859375	997.3652343750002	380.4971008300781	-1078.526489257813	989.0615844726565	427.7574462890625	-957.1007690429691	776.869567871094	468.6689147949219	-1033.924560546875	782.0034179687502	498.2919311523438	-963.1221313476566	680.7896118164064	473.6895446777344	-1047.62158203125	715.1286621093751	505.6388549804688	
22	0.21	-876.2708740234377	875.4402465820315	101.2705688476562	-1071.21142578125	929.5108642578127	169.0506591796874	-1066.865112304688	935.2374267578127	275.1444091796874	-865.4868774414065	887.2169189453127	336.7275390624999	-952.4760742187502	854.2259521484377	38.10262298583974	-907.769958496094	431.0935974121095	61.56954193115224	-870.2144775390627	418.5319213867189	189.2312774658202	-946.306091308594	390.8206481933595	61.8918342590331	-905.1624145507815	345.7166748046876	110.7562408447265	-1206.914306640625	219.2270507812501	128.5048522949218	-1159.534057617188	196.3224029541016	204.1157226562499	-1251.884033203125	223.4752655029297	196.1083068847655	-1168.670654296875	61.33286666870119	171.3665771484374	-1170.751586914063	69.10260009765626	125.1961746215819	-1219.665893554688	110.5373764038086	91.81195831298814	-941.2786254882815	862.7615356445315	416.3956604003906	-843.7088623046877	441.9977111816407	344.8214111328124	-844.5359497070315	451.225799560547	214.3017883300781	-849.3780517578127	387.2665405273439	346.7312927246093	-800.216491699219	388.600311279297	285.2684936523437	-871.1101074218752	61.77337646484376	309.7270202636718	-859.232604980469	81.35630035400392	223.7101287841796	-921.343688964844	24.37514877319337	262.5703735351562	-741.3732910156251	21.8733024597168	230.9873352050781	-737.3795776367189	33.29182815551759	284.6004638671874	-783.5085449218752	20.22234725952149	328.9446716308593	-999.0008544921877	1390.837158203125	226.8176727294921	-1059.306274414063	1112.81494140625	219.2798309326171	-842.883728027344	1077.7578125	228.6069946289062	-884.9736938476565	1307.457763671875	225.7198944091796	-1078.563598632813	1176.052124023438	142.8224639892577	-1042.100219726563	1315.831909179688	140.8492126464843	-995.9818115234377	1322.802734375	66.49328613281239	-946.1634521484377	1326.2197265625	61.56062316894521	-973.5794067382815	1021.394592285156	-23.46693801879895	-990.2800292968752	1000.332275390625	57.21736526489247	-996.087097167969	982.393249511719	12.4385414123534	-798.2753906250002	840.397888183594	-3.355529069900611	-858.2351684570315	818.5451660156252	-53.13292312622082	-744.6693115234376	768.569519042969	-12.78721809387216	-826.9074707031252	746.4141235351564	-60.23024749755871	-1075.298461914063	1169.278198242188	312.1007690429687	-1043.549438476563	1311.285034179688	310.5758361816406	-995.1766357421877	1316.816528320313	386.7820739746094	-948.7525024414065	1312.50830078125	405.5517272949219	-1038.286254882813	1008.810180664063	463.740234375	-1042.22314453125	997.8045654296877	382.7591552734374	-1057.2578125	989.2605590820315	430.271728515625	-930.3045654296878	780.0172119140627	469.0805358886719	-1006.6591796875	783.4600219726565	500.4341125488281	-933.0841064453128	684.3450927734376	475.9291687011719	-1018.055053710938	716.0319213867189	509.2296447753906	
